<svg width="185" height="142" viewBox="0 0 185 142" fill="none" xmlns="http://www.w3.org/2000/svg">
<path d="M92.5 4.5C117.95 4.5 140.97 11.9174 157.615 23.8838C174.261 35.8508 184.5 52.3385 184.5 70.5C184.5 88.6615 174.261 105.149 157.615 117.116C140.97 129.083 117.95 136.5 92.5 136.5C67.0497 136.5 44.0298 129.083 27.3848 117.116C10.7389 105.149 0.5 88.6615 0.5 70.5C0.5 52.3385 10.7389 35.8508 27.3848 23.8838C44.0298 11.9174 67.0497 4.5 92.5 4.5Z" fill="#FCF2E6" stroke="#1E1E1E"/>
<path d="M64.81 86.145C64.1867 86.145 63.5633 86.035 62.94 85.815C62.3533 85.595 61.8767 85.1367 61.51 84.44C61.1433 83.78 60.9783 82.79 61.015 81.47C61.0517 80.5167 61.2717 79.435 61.675 78.225C62.115 77.015 62.5917 75.7867 63.105 74.54C63.655 73.2933 64.1317 72.1567 64.535 71.13C64.9383 70.1033 65.14 69.315 65.14 68.765C65.14 68.6183 65.1033 68.4717 65.03 68.325C64.5533 68.2517 64.1867 68.105 63.93 67.885C63.71 67.6283 63.6 67.39 63.6 67.17C63.6 66.8767 63.7833 66.73 64.15 66.73C64.8467 66.73 65.3417 67.0783 65.635 67.775C67.065 67.2983 68.5317 66.51 70.035 65.41C71.5383 64.31 73.06 63.045 74.6 61.615C76.14 60.185 77.68 58.7183 79.22 57.215C80.7967 55.7117 82.355 54.3367 83.895 53.09C85.435 51.8067 86.9567 50.78 88.46 50.01C89.9633 49.2033 91.43 48.8 92.86 48.8C94.07 48.8 95.115 49.075 95.995 49.625C96.9117 50.175 97.37 51.11 97.37 52.43C97.37 52.6867 97.315 52.8883 97.205 53.035C97.095 53.1817 97.04 53.2 97.04 53.09C97.04 52.3933 96.8017 51.8433 96.325 51.44C95.8483 51 95.2617 50.6883 94.565 50.505C93.905 50.3217 93.2633 50.2483 92.64 50.285C91.43 50.395 90.11 50.8533 88.68 51.66C87.2867 52.4667 85.8017 53.4933 84.225 54.74C82.685 55.9867 81.1083 57.3067 79.495 58.7C77.8817 60.0933 76.2683 61.45 74.655 62.77C73.0783 64.09 71.52 65.2267 69.98 66.18C68.4767 67.1333 67.0467 67.775 65.69 68.105C65.7633 68.2517 65.8 68.435 65.8 68.655C65.8 68.8383 65.8 69.04 65.8 69.26C65.8 70.3233 65.635 71.6617 65.305 73.275C65.2317 73.6417 65.1033 74.2467 64.92 75.09C64.7367 75.8967 64.5717 76.8133 64.425 77.84C64.2783 78.8667 64.205 79.8567 64.205 80.81C64.205 81.91 64.3517 82.845 64.645 83.615C64.975 84.385 65.5433 84.77 66.35 84.77C67.0467 84.77 67.6517 84.6233 68.165 84.33C68.6783 84.0733 69.1367 83.78 69.54 83.45C69.5767 83.45 69.6317 83.4683 69.705 83.505C69.7783 83.5417 69.76 83.6517 69.65 83.835C69.1733 84.5317 68.4583 85.0817 67.505 85.485C66.5883 85.925 65.69 86.145 64.81 86.145ZM38.85 86.035C38.19 86.035 37.4933 85.925 36.76 85.705C36.0267 85.485 35.4033 85.0817 34.89 84.495C34.34 83.945 34.065 83.1933 34.065 82.24C34.065 81.7267 34.2483 81.1767 34.615 80.59C34.945 79.9667 35.385 79.6367 35.935 79.6C35.7883 79.7467 35.6783 79.985 35.605 80.315C35.5683 80.645 35.55 80.9383 35.55 81.195C35.5867 81.8183 35.8617 82.35 36.375 82.79C36.8883 83.23 37.695 83.45 38.795 83.45C40.1883 83.45 41.6367 83.0467 43.14 82.24C44.68 81.3967 46.22 80.2967 47.76 78.94C49.3367 77.5467 50.8583 76.0067 52.325 74.32C53.8283 72.6333 55.2033 70.9283 56.45 69.205C57.4767 67.7383 58.65 66.1433 59.97 64.42C61.3267 62.66 62.775 60.9367 64.315 59.25C65.8917 57.5267 67.505 56.005 69.155 54.685C68.6783 54.6117 68.1283 54.5383 67.505 54.465C66.9183 54.355 66.2583 54.2267 65.525 54.08C64.8283 53.97 63.9483 53.86 62.885 53.75C61.8583 53.64 60.74 53.585 59.53 53.585C58.1 53.585 56.6333 53.7317 55.13 54.025C53.6267 54.2817 52.1967 54.7767 50.84 55.51C49.52 56.2433 48.3833 57.325 47.43 58.755C47.1733 59.1217 46.9533 59.58 46.77 60.13C46.6233 60.6433 46.55 61.1567 46.55 61.67C46.55 62.33 46.7333 62.9167 47.1 63.43C47.4667 63.9067 48.0717 64.145 48.915 64.145C49.0617 64.145 49.2083 64.145 49.355 64.145C49.5383 64.1083 49.7033 64.0717 49.85 64.035C49.8867 64.035 49.905 64.0533 49.905 64.09C49.905 64.1267 49.85 64.2183 49.74 64.365C49.6667 64.475 49.5017 64.5667 49.245 64.64C49.0983 64.6767 48.9517 64.7133 48.805 64.75C48.6583 64.75 48.5117 64.75 48.365 64.75C47.045 64.75 46.11 64.365 45.56 63.595C45.01 62.825 44.735 61.9633 44.735 61.01C44.735 59.5067 45.12 58.26 45.89 57.27C47.2467 55.4367 48.915 54.245 50.895 53.695C52.875 53.1083 54.9833 52.815 57.22 52.815C59.0533 52.815 60.8867 52.9067 62.72 53.09C64.59 53.2733 66.3683 53.365 68.055 53.365C69.265 53.365 70.42 53.255 71.52 53.035C72.62 52.7783 73.39 52.3017 73.83 51.605C74.0867 51.7883 74.215 52.1 74.215 52.54C74.215 52.9067 74.0683 53.2917 73.775 53.695C73.5183 54.0983 73.0417 54.41 72.345 54.63C71.795 54.7767 71.1167 54.8317 70.31 54.795C68.6233 56.115 66.9733 57.71 65.36 59.58C63.7833 61.45 62.3167 63.3567 60.96 65.3C59.6033 67.2067 58.3933 68.93 57.33 70.47C56.0467 72.23 54.7267 74.0267 53.37 75.86C52.0133 77.6933 50.5833 79.38 49.08 80.92C47.5767 82.46 45.9817 83.6883 44.295 84.605C42.6083 85.5583 40.7933 86.035 38.85 86.035ZM85.4133 83.28C84.0799 83.28 83.0533 82.9867 82.3333 82.4C81.6399 81.7867 81.2933 80.9467 81.2933 79.88C81.2933 79.7467 81.3066 79.5867 81.3333 79.4C81.3599 79.2133 81.3866 79.0533 81.4133 78.92C81.5733 78.0133 81.9599 77.1467 82.5733 76.32C83.2133 75.4667 83.9733 74.7067 84.8533 74.04C85.7599 73.3733 86.7066 72.8267 87.6933 72.4C88.7066 71.9733 89.6799 71.7333 90.6133 71.68C90.5866 71.5467 90.5599 71.3867 90.5333 71.2C90.5333 70.9867 90.5333 70.7467 90.5333 70.48C90.5333 69.68 90.7733 68.8667 91.2533 68.04C91.7333 67.1867 92.3733 66.4133 93.1733 65.72C93.9999 65 94.9199 64.4267 95.9333 64C96.9466 63.5467 97.9866 63.32 99.0533 63.32C99.1599 63.32 99.2799 63.32 99.4133 63.32C99.5733 63.32 99.7066 63.3333 99.8133 63.36C100.507 63.44 101.12 63.6533 101.653 64C102.187 64.32 102.453 64.7733 102.453 65.36C102.453 65.4933 102.427 65.6667 102.373 65.88C102.107 66.7333 101.573 67.5067 100.773 68.2C99.9999 68.8933 99.0799 69.4 98.0133 69.72C97.9066 69.7467 97.8133 69.7733 97.7333 69.8C97.6533 69.8 97.5866 69.8 97.5333 69.8C97.4266 69.8 97.3733 69.7733 97.3733 69.72C97.3733 69.56 97.5466 69.4133 97.8933 69.28C98.7466 68.88 99.4799 68.3733 100.093 67.76C100.707 67.12 101.107 66.4267 101.293 65.68C101.347 65.3067 101.253 64.96 101.013 64.64C100.8 64.32 100.28 64.16 99.4533 64.16C98.7599 64.16 97.9733 64.3867 97.0933 64.84C96.2133 65.2667 95.3066 65.9067 94.3733 66.76C93.8133 67.2667 93.3066 67.8933 92.8533 68.64C92.3999 69.3867 91.9999 70.1733 91.6533 71C91.6533 71.0267 91.6399 71.0667 91.6133 71.12C91.5866 71.1733 91.5733 71.2267 91.5733 71.28C91.5199 71.3867 91.4933 71.5067 91.4933 71.64C92.2666 71.6133 92.9066 71.76 93.4133 72.08C93.7066 72.24 93.8266 72.3467 93.7733 72.4C93.6933 72.64 93.3866 72.76 92.8533 72.76C92.1599 72.76 91.6266 72.6667 91.2533 72.48C90.9066 72.2933 90.7066 72.0667 90.6533 71.8C89.5599 71.9867 88.4799 72.48 87.4133 73.28C86.3733 74.08 85.4933 75.0267 84.7733 76.12C84.0533 77.2133 83.5999 78.32 83.4133 79.44C83.3333 79.84 83.2933 80.2133 83.2933 80.56C83.2933 81.2 83.4666 81.72 83.8133 82.12C84.1866 82.52 84.8533 82.72 85.8133 82.72C86.6399 82.72 87.4799 82.5333 88.3333 82.16C89.2133 81.76 90.0533 81.2533 90.8533 80.64C91.6533 80 92.3599 79.2933 92.9733 78.52C93.5866 77.7467 94.0399 76.9867 94.3333 76.24H94.2133L92.9333 75.92L90.5333 75.48C90.5333 75.48 90.3999 75.5467 90.1333 75.68C89.8666 75.7867 89.5466 75.9067 89.1733 76.04C88.8266 76.1733 88.4799 76.24 88.1333 76.24C87.6533 76.24 87.4133 76.1333 87.4133 75.92C87.4133 75.7067 87.5733 75.5067 87.8933 75.32C88.2399 75.1067 88.6533 75 89.1333 75C89.3199 75 89.4933 75 89.6533 75C89.8399 75 90.0266 75.0267 90.2133 75.08L91.0133 74.48C91.5466 74.16 92.1066 73.8933 92.6933 73.68C93.2799 73.4667 93.8799 73.36 94.4933 73.36C95.1333 73.3867 95.5999 73.5333 95.8933 73.8C96.2133 74.0667 96.3733 74.4 96.3733 74.8C96.3733 75.2267 96.2799 75.6267 96.0933 76H95.9733C96.1066 76.0267 96.2533 76.04 96.4133 76.04C96.5733 76.04 96.7333 76.04 96.8933 76.04C97.7466 76.04 98.6266 75.9067 99.5333 75.64C100.467 75.3733 101.253 74.9733 101.893 74.44C102.533 73.88 102.853 73.1867 102.853 72.36C102.853 72.1467 102.8 71.9067 102.693 71.64C102.613 71.3733 102.453 71.2 102.213 71.12C102.373 71.0667 102.533 71.04 102.693 71.04C103.147 71.04 103.533 71.2 103.853 71.52C104.2 71.84 104.373 72.2267 104.373 72.68C104.373 73.64 104.04 74.4133 103.373 75C102.733 75.5867 101.96 76.0133 101.053 76.28C100.173 76.52 99.3599 76.64 98.6133 76.64C98.1866 76.64 97.7466 76.64 97.2933 76.64C96.8399 76.6133 96.3466 76.56 95.8133 76.48L95.5333 76.92C95.1333 77.56 94.5599 78.2533 93.8133 79C93.0933 79.72 92.2666 80.4133 91.3333 81.08C90.3999 81.72 89.4266 82.2533 88.4133 82.68C87.3999 83.08 86.3999 83.28 85.4133 83.28ZM94.3733 75.8C94.4266 75.8 94.4533 75.8 94.4533 75.8L94.6133 75.24C94.6399 75.16 94.6533 75.0533 94.6533 74.92C94.6533 74.68 94.5866 74.48 94.4533 74.32C94.3199 74.1333 94.0799 74.04 93.7333 74.04C93.6533 74.04 93.5733 74.04 93.4933 74.04C93.4133 74.04 93.3333 74.0533 93.2533 74.08C93.0666 74.1067 92.8533 74.1733 92.6133 74.28C92.3733 74.36 92.1199 74.4667 91.8533 74.6L91.4133 74.88C91.3599 74.9067 91.2799 74.9467 91.1733 75C91.0933 75.0533 91.0266 75.1067 90.9733 75.16H90.8933L91.8133 75.36C92.0533 75.3867 92.2933 75.4267 92.5333 75.48C92.7733 75.5333 93.0133 75.5733 93.2533 75.6L94.3733 75.8ZM116.734 95.99C115.487 95.99 114.259 95.8067 113.049 95.44C111.875 95.0733 110.904 94.4317 110.134 93.515C109.327 92.5983 108.924 91.2967 108.924 89.61C108.924 88.4 109.254 87.3917 109.914 86.585C110.537 85.815 111.05 85.43 111.454 85.43C111.527 85.43 111.6 85.4667 111.674 85.54C111.344 85.8333 111.069 86.31 110.849 86.97C110.665 87.63 110.574 88.3267 110.574 89.06C110.574 90.5633 111.069 91.9017 112.059 93.075C113.085 94.2483 114.552 94.835 116.459 94.835C119.025 94.835 121.317 94.1933 123.334 92.91C125.387 91.6633 127.239 89.995 128.889 87.905C130.575 85.8517 132.152 83.615 133.619 81.195C134.315 80.0583 134.939 79.05 135.489 78.17C136.075 77.2533 136.607 76.4283 137.084 75.695C136.094 76.795 134.939 77.95 133.619 79.16C132.335 80.37 130.96 81.5067 129.494 82.57C128.064 83.5967 126.579 84.4217 125.039 85.045C123.535 85.705 122.05 86.035 120.584 86.035C119.117 86.035 117.852 85.595 116.789 84.715C115.725 83.835 115.194 82.295 115.194 80.095C115.194 78.0417 115.652 76.0067 116.569 73.99C117.485 71.9367 118.695 69.9567 120.199 68.05C117.852 67.7567 115.927 67.17 114.424 66.29C112.92 65.41 112.169 64.1267 112.169 62.44C112.169 61.2667 112.499 60.295 113.159 59.525C113.819 58.7183 114.644 58.0767 115.634 57.6C116.66 57.1233 117.742 56.7567 118.879 56.5C120.052 56.2433 121.134 56.0783 122.124 56.005C123.15 55.9317 123.957 55.895 124.544 55.895C124.727 55.895 125.149 55.9133 125.809 55.95C126.505 55.95 127.239 55.9867 128.009 56.06C128.815 56.0967 129.512 56.17 130.099 56.28C130.685 56.39 130.979 56.5183 130.979 56.665C130.979 56.8117 130.85 56.885 130.594 56.885C130.117 56.885 129.585 56.8667 128.999 56.83C128.412 56.7567 127.825 56.72 127.239 56.72C126.799 56.72 126.359 56.72 125.919 56.72C125.479 56.72 125.057 56.7383 124.654 56.775C123.92 56.8117 123.004 56.9033 121.904 57.05C120.804 57.16 119.704 57.4167 118.604 57.82C117.54 58.1867 116.642 58.755 115.909 59.525C115.175 60.2583 114.809 61.2667 114.809 62.55C114.809 63.9067 115.359 64.97 116.459 65.74C117.595 66.4733 119.062 66.95 120.859 67.17C122.582 65.1167 124.544 63.2283 126.744 61.505C128.944 59.745 131.18 58.2233 133.454 56.94C135.764 55.6567 137.982 54.6483 140.109 53.915C142.272 53.1817 144.16 52.815 145.774 52.815C146.837 52.815 147.827 53.0167 148.744 53.42C149.66 53.7867 150.119 54.575 150.119 55.785C150.119 57.215 149.55 58.5533 148.414 59.8C147.314 61.0467 145.829 62.1833 143.959 63.21C142.089 64.2367 139.999 65.135 137.689 65.905C135.379 66.6383 132.995 67.2067 130.539 67.61C128.082 68.0133 125.735 68.215 123.499 68.215H123.279C121.702 70.2317 120.437 72.34 119.484 74.54C118.567 76.7033 118.109 78.8117 118.109 80.865C118.109 82.3683 118.42 83.4133 119.044 84C119.667 84.5867 120.437 84.88 121.354 84.88C122.234 84.88 123.169 84.6967 124.159 84.33C125.185 83.9633 126.157 83.5233 127.074 83.01C127.99 82.46 128.76 81.9467 129.384 81.47C130.85 80.3333 132.262 79.1417 133.619 77.895C135.012 76.6483 136.24 75.475 137.304 74.375C138.404 73.275 139.247 72.3767 139.834 71.68C140.567 70.7267 141.227 69.865 141.814 69.095C142.437 68.2883 143.225 67.885 144.179 67.885C144.802 67.885 145.114 68.16 145.114 68.71C145.114 69.15 144.912 69.4617 144.509 69.645C143.592 69.6817 142.73 69.9933 141.924 70.58C141.154 71.13 140.567 71.9 140.164 72.89C139.577 74.32 138.99 75.7867 138.404 77.29C137.817 78.7933 137.157 80.2967 136.424 81.8C135.214 84.33 133.692 86.6767 131.859 88.84C130.062 91.0033 127.917 92.7267 125.424 94.01C122.93 95.33 120.034 95.99 116.734 95.99ZM123.939 67.335C125.955 67.2983 128.1 67.0783 130.374 66.675C132.647 66.235 134.865 65.6483 137.029 64.915C139.229 64.1817 141.209 63.3383 142.969 62.385C144.765 61.395 146.195 60.3317 147.259 59.195C148.322 58.0217 148.854 56.83 148.854 55.62C148.854 54.7767 148.524 54.2267 147.864 53.97C147.24 53.7133 146.562 53.585 145.829 53.585C144.325 53.585 142.639 53.9517 140.769 54.685C138.899 55.3817 136.955 56.3533 134.939 57.6C132.959 58.8467 131.015 60.3133 129.109 62C127.202 63.65 125.479 65.4283 123.939 67.335Z" fill="black"/>
<path d="M93 14.5C115.555 14.5 135.954 20.7999 150.699 30.96C165.447 41.1215 174.5 55.1095 174.5 70.5C174.5 85.8905 165.447 99.8785 150.699 110.04C135.954 120.2 115.555 126.5 93 126.5C70.4447 126.5 50.0463 120.2 35.3008 110.04C20.5531 99.8785 11.5 85.8905 11.5 70.5C11.5 55.1095 20.5531 41.1215 35.3008 30.96C50.0463 20.7999 70.4447 14.5 93 14.5Z" stroke="#1E1E1E"/>
</svg>
