<svg width="185" height="142" viewBox="0 0 185 142" fill="none" xmlns="http://www.w3.org/2000/svg">
<path d="M92.5 0.5C117.943 0.5 140.958 8.41662 157.603 21.1924C174.247 33.9678 184.5 51.5816 184.5 71C184.5 90.4184 174.247 108.032 157.603 120.808C140.958 133.583 117.943 141.5 92.5 141.5C67.0573 141.5 44.042 133.583 27.3975 120.808C10.7534 108.032 0.5 90.4184 0.5 71C0.5 51.5816 10.7534 33.9678 27.3975 21.1924C44.042 8.41662 67.0573 0.5 92.5 0.5Z" fill="#FCF2E6" stroke="#A0A060"/>
<path d="M62.81 87.145C62.1867 87.145 61.5633 87.035 60.94 86.815C60.3533 86.595 59.8767 86.1367 59.51 85.44C59.1433 84.78 58.9783 83.79 59.015 82.47C59.0517 81.5167 59.2717 80.435 59.675 79.225C60.115 78.015 60.5917 76.7867 61.105 75.54C61.655 74.2933 62.1317 73.1567 62.535 72.13C62.9383 71.1033 63.14 70.315 63.14 69.765C63.14 69.6183 63.1033 69.4717 63.03 69.325C62.5533 69.2517 62.1867 69.105 61.93 68.885C61.71 68.6283 61.6 68.39 61.6 68.17C61.6 67.8767 61.7833 67.73 62.15 67.73C62.8467 67.73 63.3417 68.0783 63.635 68.775C65.065 68.2983 66.5317 67.51 68.035 66.41C69.5383 65.31 71.06 64.045 72.6 62.615C74.14 61.185 75.68 59.7183 77.22 58.215C78.7967 56.7117 80.355 55.3367 81.895 54.09C83.435 52.8067 84.9567 51.78 86.46 51.01C87.9633 50.2033 89.43 49.8 90.86 49.8C92.07 49.8 93.115 50.075 93.995 50.625C94.9117 51.175 95.37 52.11 95.37 53.43C95.37 53.6867 95.315 53.8883 95.205 54.035C95.095 54.1817 95.04 54.2 95.04 54.09C95.04 53.3933 94.8017 52.8433 94.325 52.44C93.8483 52 93.2617 51.6883 92.565 51.505C91.905 51.3217 91.2633 51.2483 90.64 51.285C89.43 51.395 88.11 51.8533 86.68 52.66C85.2867 53.4667 83.8017 54.4933 82.225 55.74C80.685 56.9867 79.1083 58.3067 77.495 59.7C75.8817 61.0933 74.2683 62.45 72.655 63.77C71.0783 65.09 69.52 66.2267 67.98 67.18C66.4767 68.1333 65.0467 68.775 63.69 69.105C63.7633 69.2517 63.8 69.435 63.8 69.655C63.8 69.8383 63.8 70.04 63.8 70.26C63.8 71.3233 63.635 72.6617 63.305 74.275C63.2317 74.6417 63.1033 75.2467 62.92 76.09C62.7367 76.8967 62.5717 77.8133 62.425 78.84C62.2783 79.8667 62.205 80.8567 62.205 81.81C62.205 82.91 62.3517 83.845 62.645 84.615C62.975 85.385 63.5433 85.77 64.35 85.77C65.0467 85.77 65.6517 85.6233 66.165 85.33C66.6783 85.0733 67.1367 84.78 67.54 84.45C67.5767 84.45 67.6317 84.4683 67.705 84.505C67.7783 84.5417 67.76 84.6517 67.65 84.835C67.1733 85.5317 66.4583 86.0817 65.505 86.485C64.5883 86.925 63.69 87.145 62.81 87.145ZM36.85 87.035C36.19 87.035 35.4933 86.925 34.76 86.705C34.0267 86.485 33.4033 86.0817 32.89 85.495C32.34 84.945 32.065 84.1933 32.065 83.24C32.065 82.7267 32.2483 82.1767 32.615 81.59C32.945 80.9667 33.385 80.6367 33.935 80.6C33.7883 80.7467 33.6783 80.985 33.605 81.315C33.5683 81.645 33.55 81.9383 33.55 82.195C33.5867 82.8183 33.8617 83.35 34.375 83.79C34.8883 84.23 35.695 84.45 36.795 84.45C38.1883 84.45 39.6367 84.0467 41.14 83.24C42.68 82.3967 44.22 81.2967 45.76 79.94C47.3367 78.5467 48.8583 77.0067 50.325 75.32C51.8283 73.6333 53.2033 71.9283 54.45 70.205C55.4767 68.7383 56.65 67.1433 57.97 65.42C59.3267 63.66 60.775 61.9367 62.315 60.25C63.8917 58.5267 65.505 57.005 67.155 55.685C66.6783 55.6117 66.1283 55.5383 65.505 55.465C64.9183 55.355 64.2583 55.2267 63.525 55.08C62.8283 54.97 61.9483 54.86 60.885 54.75C59.8583 54.64 58.74 54.585 57.53 54.585C56.1 54.585 54.6333 54.7317 53.13 55.025C51.6267 55.2817 50.1967 55.7767 48.84 56.51C47.52 57.2433 46.3833 58.325 45.43 59.755C45.1733 60.1217 44.9533 60.58 44.77 61.13C44.6233 61.6433 44.55 62.1567 44.55 62.67C44.55 63.33 44.7333 63.9167 45.1 64.43C45.4667 64.9067 46.0717 65.145 46.915 65.145C47.0617 65.145 47.2083 65.145 47.355 65.145C47.5383 65.1083 47.7033 65.0717 47.85 65.035C47.8867 65.035 47.905 65.0533 47.905 65.09C47.905 65.1267 47.85 65.2183 47.74 65.365C47.6667 65.475 47.5017 65.5667 47.245 65.64C47.0983 65.6767 46.9517 65.7133 46.805 65.75C46.6583 65.75 46.5117 65.75 46.365 65.75C45.045 65.75 44.11 65.365 43.56 64.595C43.01 63.825 42.735 62.9633 42.735 62.01C42.735 60.5067 43.12 59.26 43.89 58.27C45.2467 56.4367 46.915 55.245 48.895 54.695C50.875 54.1083 52.9833 53.815 55.22 53.815C57.0533 53.815 58.8867 53.9067 60.72 54.09C62.59 54.2733 64.3683 54.365 66.055 54.365C67.265 54.365 68.42 54.255 69.52 54.035C70.62 53.7783 71.39 53.3017 71.83 52.605C72.0867 52.7883 72.215 53.1 72.215 53.54C72.215 53.9067 72.0683 54.2917 71.775 54.695C71.5183 55.0983 71.0417 55.41 70.345 55.63C69.795 55.7767 69.1167 55.8317 68.31 55.795C66.6233 57.115 64.9733 58.71 63.36 60.58C61.7833 62.45 60.3167 64.3567 58.96 66.3C57.6033 68.2067 56.3933 69.93 55.33 71.47C54.0467 73.23 52.7267 75.0267 51.37 76.86C50.0133 78.6933 48.5833 80.38 47.08 81.92C45.5767 83.46 43.9817 84.6883 42.295 85.605C40.6083 86.5583 38.7933 87.035 36.85 87.035ZM85.9633 84.01C84.1299 84.01 82.7183 83.6067 81.7283 82.8C80.7749 81.9567 80.2983 80.8017 80.2983 79.335C80.2983 79.1517 80.3166 78.9317 80.3533 78.675C80.3899 78.4183 80.4266 78.1983 80.4633 78.015C80.6833 76.7683 81.2149 75.5767 82.0583 74.44C82.9383 73.2667 83.9833 72.2217 85.1933 71.305C86.4399 70.3883 87.7416 69.6367 89.0983 69.05C90.4916 68.4633 91.8299 68.1333 93.1133 68.06C93.0766 67.8767 93.0399 67.6567 93.0033 67.4C93.0033 67.1067 93.0033 66.7767 93.0033 66.41C93.0033 65.31 93.3333 64.1917 93.9933 63.055C94.6533 61.8817 95.5333 60.8183 96.6333 59.865C97.7699 58.875 99.0349 58.0867 100.428 57.5C101.822 56.8767 103.252 56.565 104.718 56.565C104.865 56.565 105.03 56.565 105.213 56.565C105.433 56.565 105.617 56.5833 105.763 56.62C106.717 56.73 107.56 57.0233 108.293 57.5C109.027 57.94 109.393 58.5633 109.393 59.37C109.393 59.5533 109.357 59.7917 109.283 60.085C108.917 61.2583 108.183 62.3217 107.083 63.275C106.02 64.2283 104.755 64.925 103.288 65.365C103.142 65.4017 103.013 65.4383 102.903 65.475C102.793 65.475 102.702 65.475 102.628 65.475C102.482 65.475 102.408 65.4383 102.408 65.365C102.408 65.145 102.647 64.9433 103.123 64.76C104.297 64.21 105.305 63.5133 106.148 62.67C106.992 61.79 107.542 60.8367 107.798 59.81C107.872 59.2967 107.743 58.82 107.413 58.38C107.12 57.94 106.405 57.72 105.268 57.72C104.315 57.72 103.233 58.0317 102.023 58.655C100.813 59.2417 99.5666 60.1217 98.2833 61.295C97.5133 61.9917 96.8166 62.8533 96.1933 63.88C95.5699 64.9067 95.0199 65.9883 94.5433 67.125C94.5433 67.1617 94.5249 67.2167 94.4883 67.29C94.4516 67.3633 94.4333 67.4367 94.4333 67.51C94.3599 67.6567 94.3233 67.8217 94.3233 68.005C95.3866 67.9683 96.2666 68.17 96.9633 68.61C97.3666 68.83 97.5316 68.9767 97.4583 69.05C97.3483 69.38 96.9266 69.545 96.1933 69.545C95.2399 69.545 94.5066 69.4167 93.9933 69.16C93.5166 68.9033 93.2416 68.5917 93.1683 68.225C91.6649 68.4817 90.1799 69.16 88.7133 70.26C87.2833 71.36 86.0733 72.6617 85.0833 74.165C84.0933 75.6683 83.4699 77.19 83.2133 78.73C83.1033 79.28 83.0483 79.7933 83.0483 80.27C83.0483 81.15 83.2866 81.865 83.7633 82.415C84.2766 82.965 85.1933 83.24 86.5133 83.24C87.6499 83.24 88.8049 82.9833 89.9783 82.47C91.1883 81.92 92.3433 81.2233 93.4433 80.38C94.5433 79.5 95.5149 78.5283 96.3583 77.465C97.2016 76.4017 97.8249 75.3567 98.2283 74.33H98.0633L96.3033 73.89L93.0033 73.285C93.0033 73.285 92.8199 73.3767 92.4533 73.56C92.0866 73.7067 91.6466 73.8717 91.1333 74.055C90.6566 74.2383 90.1799 74.33 89.7033 74.33C89.0433 74.33 88.7133 74.1833 88.7133 73.89C88.7133 73.5967 88.9333 73.3217 89.3733 73.065C89.8499 72.7717 90.4183 72.625 91.0783 72.625C91.3349 72.625 91.5733 72.625 91.7933 72.625C92.0499 72.625 92.3066 72.6617 92.5633 72.735L93.6633 71.91C94.3966 71.47 95.1666 71.1033 95.9733 70.81C96.7799 70.5167 97.6049 70.37 98.4483 70.37C99.3283 70.4067 99.9699 70.6083 100.373 70.975C100.813 71.3417 101.033 71.8 101.033 72.35C101.033 72.9367 100.905 73.4867 100.648 74H100.483C100.667 74.0367 100.868 74.055 101.088 74.055C101.308 74.055 101.528 74.055 101.748 74.055C102.922 74.055 104.132 73.8717 105.378 73.505C106.662 73.1383 107.743 72.5883 108.623 71.855C109.503 71.085 109.943 70.1317 109.943 68.995C109.943 68.7017 109.87 68.3717 109.723 68.005C109.613 67.6383 109.393 67.4 109.063 67.29C109.283 67.2167 109.503 67.18 109.723 67.18C110.347 67.18 110.878 67.4 111.318 67.84C111.795 68.28 112.033 68.8117 112.033 69.435C112.033 70.755 111.575 71.8183 110.658 72.625C109.778 73.4317 108.715 74.0183 107.468 74.385C106.258 74.715 105.14 74.88 104.113 74.88C103.527 74.88 102.922 74.88 102.298 74.88C101.675 74.8433 100.997 74.77 100.263 74.66L99.8783 75.265C99.3283 76.145 98.5399 77.0983 97.5133 78.125C96.5233 79.115 95.3866 80.0683 94.1033 80.985C92.8199 81.865 91.4816 82.5983 90.0883 83.185C88.6949 83.735 87.3199 84.01 85.9633 84.01ZM98.2833 73.725C98.3566 73.725 98.3933 73.725 98.3933 73.725L98.6133 72.955C98.6499 72.845 98.6683 72.6983 98.6683 72.515C98.6683 72.185 98.5766 71.91 98.3933 71.69C98.2099 71.4333 97.8799 71.305 97.4033 71.305C97.2933 71.305 97.1833 71.305 97.0733 71.305C96.9633 71.305 96.8533 71.3233 96.7433 71.36C96.4866 71.3967 96.1933 71.4883 95.8633 71.635C95.5333 71.745 95.1849 71.8917 94.8183 72.075L94.2133 72.46C94.1399 72.4967 94.0299 72.5517 93.8833 72.625C93.7733 72.6983 93.6816 72.7717 93.6083 72.845H93.4983L94.7633 73.12C95.0933 73.1567 95.4233 73.2117 95.7533 73.285C96.0833 73.3583 96.4133 73.4133 96.7433 73.45L98.2833 73.725ZM126.76 96.99C125.513 96.99 124.285 96.8067 123.075 96.44C121.902 96.0733 120.93 95.4317 120.16 94.515C119.353 93.5983 118.95 92.2967 118.95 90.61C118.95 89.4 119.28 88.3917 119.94 87.585C120.563 86.815 121.077 86.43 121.48 86.43C121.553 86.43 121.627 86.4667 121.7 86.54C121.37 86.8333 121.095 87.31 120.875 87.97C120.692 88.63 120.6 89.3267 120.6 90.06C120.6 91.5633 121.095 92.9017 122.085 94.075C123.112 95.2483 124.578 95.835 126.485 95.835C129.052 95.835 131.343 95.1933 133.36 93.91C135.413 92.6633 137.265 90.995 138.915 88.905C140.602 86.8517 142.178 84.615 143.645 82.195C144.342 81.0583 144.965 80.05 145.515 79.17C146.102 78.2533 146.633 77.4283 147.11 76.695C146.12 77.795 144.965 78.95 143.645 80.16C142.362 81.37 140.987 82.5067 139.52 83.57C138.09 84.5967 136.605 85.4217 135.065 86.045C133.562 86.705 132.077 87.035 130.61 87.035C129.143 87.035 127.878 86.595 126.815 85.715C125.752 84.835 125.22 83.295 125.22 81.095C125.22 79.0417 125.678 77.0067 126.595 74.99C127.512 72.9367 128.722 70.9567 130.225 69.05C127.878 68.7567 125.953 68.17 124.45 67.29C122.947 66.41 122.195 65.1267 122.195 63.44C122.195 62.2667 122.525 61.295 123.185 60.525C123.845 59.7183 124.67 59.0767 125.66 58.6C126.687 58.1233 127.768 57.7567 128.905 57.5C130.078 57.2433 131.16 57.0783 132.15 57.005C133.177 56.9317 133.983 56.895 134.57 56.895C134.753 56.895 135.175 56.9133 135.835 56.95C136.532 56.95 137.265 56.9867 138.035 57.06C138.842 57.0967 139.538 57.17 140.125 57.28C140.712 57.39 141.005 57.5183 141.005 57.665C141.005 57.8117 140.877 57.885 140.62 57.885C140.143 57.885 139.612 57.8667 139.025 57.83C138.438 57.7567 137.852 57.72 137.265 57.72C136.825 57.72 136.385 57.72 135.945 57.72C135.505 57.72 135.083 57.7383 134.68 57.775C133.947 57.8117 133.03 57.9033 131.93 58.05C130.83 58.16 129.73 58.4167 128.63 58.82C127.567 59.1867 126.668 59.755 125.935 60.525C125.202 61.2583 124.835 62.2667 124.835 63.55C124.835 64.9067 125.385 65.97 126.485 66.74C127.622 67.4733 129.088 67.95 130.885 68.17C132.608 66.1167 134.57 64.2283 136.77 62.505C138.97 60.745 141.207 59.2233 143.48 57.94C145.79 56.6567 148.008 55.6483 150.135 54.915C152.298 54.1817 154.187 53.815 155.8 53.815C156.863 53.815 157.853 54.0167 158.77 54.42C159.687 54.7867 160.145 55.575 160.145 56.785C160.145 58.215 159.577 59.5533 158.44 60.8C157.34 62.0467 155.855 63.1833 153.985 64.21C152.115 65.2367 150.025 66.135 147.715 66.905C145.405 67.6383 143.022 68.2067 140.565 68.61C138.108 69.0133 135.762 69.215 133.525 69.215H133.305C131.728 71.2317 130.463 73.34 129.51 75.54C128.593 77.7033 128.135 79.8117 128.135 81.865C128.135 83.3683 128.447 84.4133 129.07 85C129.693 85.5867 130.463 85.88 131.38 85.88C132.26 85.88 133.195 85.6967 134.185 85.33C135.212 84.9633 136.183 84.5233 137.1 84.01C138.017 83.46 138.787 82.9467 139.41 82.47C140.877 81.3333 142.288 80.1417 143.645 78.895C145.038 77.6483 146.267 76.475 147.33 75.375C148.43 74.275 149.273 73.3767 149.86 72.68C150.593 71.7267 151.253 70.865 151.84 70.095C152.463 69.2883 153.252 68.885 154.205 68.885C154.828 68.885 155.14 69.16 155.14 69.71C155.14 70.15 154.938 70.4617 154.535 70.645C153.618 70.6817 152.757 70.9933 151.95 71.58C151.18 72.13 150.593 72.9 150.19 73.89C149.603 75.32 149.017 76.7867 148.43 78.29C147.843 79.7933 147.183 81.2967 146.45 82.8C145.24 85.33 143.718 87.6767 141.885 89.84C140.088 92.0033 137.943 93.7267 135.45 95.01C132.957 96.33 130.06 96.99 126.76 96.99ZM133.965 68.335C135.982 68.2983 138.127 68.0783 140.4 67.675C142.673 67.235 144.892 66.6483 147.055 65.915C149.255 65.1817 151.235 64.3383 152.995 63.385C154.792 62.395 156.222 61.3317 157.285 60.195C158.348 59.0217 158.88 57.83 158.88 56.62C158.88 55.7767 158.55 55.2267 157.89 54.97C157.267 54.7133 156.588 54.585 155.855 54.585C154.352 54.585 152.665 54.9517 150.795 55.685C148.925 56.3817 146.982 57.3533 144.965 58.6C142.985 59.8467 141.042 61.3133 139.135 63C137.228 64.65 135.505 66.4283 133.965 68.335Z" fill="black"/>
<path d="M93 2.5C117.752 2.5 140.143 10.1926 156.335 22.6064C172.527 35.02 182.5 52.1341 182.5 71C182.5 89.8659 172.527 106.98 156.335 119.394C140.143 131.807 117.752 139.5 93 139.5C68.2476 139.5 45.8571 131.807 29.665 119.394C13.4734 106.98 3.5 89.8659 3.5 71C3.5 52.1341 13.4734 35.02 29.665 22.6064C45.8571 10.1926 68.2477 2.5 93 2.5Z" stroke="#A0A060"/>
</svg>
